<svg xmlns="http://www.w3.org/2000/svg" width="150" height="50" viewBox="0,0,150,50"><path fill="#0096ff" d="M74.67 33.34L74.61 33.27L74.74 33.41Q72.95 33.27 71.61 32.70L71.78 32.87L71.62 32.72Q70.34 32.21 69.39 31.19L69.41 31.21L69.29 31.09Q68.38 30.11 67.87 28.70L67.86 28.70L67.83 28.67Q67.33 27.28 67.33 25.61L67.48 25.75L67.37 25.03L67.33 24.99Q67.40 23.13 67.98 21.60L67.96 21.58L68.00 21.62Q68.63 20.15 69.60 19.11L69.48 18.99L69.54 19.05Q70.57 18.07 71.81 17.52L71.79 17.50L71.78 17.49Q73.01 16.92 74.35 16.92L74.42 16.99L74.36 16.93Q76.14 17.01 77.37 17.60L77.26 17.49L77.18 17.41Q78.53 18.13 79.33 19.17L79.31 19.15L79.36 19.20Q80.16 20.24 80.55 21.66L80.57 21.69L80.39 21.51Q80.79 22.95 80.79 24.62L80.81 24.64L80.90 25.95L70.17 25.95L70.08 25.86Q70.08 26.94 70.41 27.89L70.43 27.91L70.50 27.97Q70.81 28.91 71.42 29.61L71.33 29.52L71.34 29.53Q72.01 30.29 72.86 30.70L72.91 30.75L72.84 30.68Q73.78 31.17 74.86 31.17L74.93 31.24L74.77 31.08Q76.26 31.13 77.25 30.55L77.27 30.57L77.33 30.62Q78.28 29.99 79.03 29.02L79.07 29.07L80.73 30.36L80.71 30.34Q80.21 30.81 79.67 31.36L79.81 31.49L79.65 31.34Q79.24 32.02 78.52 32.45L78.56 32.49L78.44 32.38Q77.71 32.81 76.77 33.06L76.76 33.05L76.72 33.01Q75.86 33.34 74.67 33.34ZM74.35 19.14L74.29 19.09L74.43 19.23Q73.58 19.20 72.90 19.50L72.86 19.47L72.90 19.50Q72.08 19.67 71.53 20.24L71.68 20.39L71.61 20.31Q71.01 20.83 70.65 21.68L70.75 21.78L70.79 21.82Q70.38 22.62 70.25 23.72L70.13 23.59L78.19 23.71L78.14 23.46L78.19 23.52Q78.12 22.69 77.90 21.92L77.95 21.96L77.82 21.83Q77.59 21.04 77.14 20.42L77.21 20.49L77.22 20.50Q76.87 19.99 76.17 19.60L76.04 19.47L76.10 19.53Q75.30 19.05 74.26 19.05Z"/><path fill="#0096ff" d="M47.37 13.29L50.23 13.44L50.14 17.19L53.03 17.12L53.14 19.32L50.13 19.27L50.23 29.20L50.14 29.11Q50.09 29.67 50.23 30.04L50.24 30.06L50.40 30.21Q50.41 30.45 50.65 30.65L50.72 30.72L50.73 30.73Q50.86 30.82 51.17 30.89L51.21 30.93L51.25 30.97Q51.51 30.98 51.85 30.98L51.94 31.07L51.96 31.09Q52.30 31.10 52.68 31.03L52.70 31.05L52.56 30.92Q53.08 30.99 53.28 30.95L53.18 30.84L53.15 33.02L53.16 33.03Q52.96 33.24 52.45 33.34L52.31 33.20L52.41 33.30Q51.88 33.39 51.15 33.39L51.13 33.37L51.05 33.28Q50.28 33.26 49.61 33.05L49.79 33.23L49.74 33.18Q49.05 32.94 48.55 32.44L48.55 32.44L48.62 32.51Q48.11 32.00 47.81 31.18L47.83 31.20L47.66 31.03Q47.39 30.24 47.39 29.06L47.39 29.05L47.38 19.23L44.63 19.37L44.66 17.31L47.48 17.23L47.36 13.28Z"/><path fill="#0096ff" d="M102.43 11.75L102.63 11.70L102.66 14.03L102.43 14.05L102.44 14.06Q100.52 14.09 99.16 14.68L99.10 14.61L99.17 14.69Q97.65 15.11 96.77 16.08L96.92 16.23L96.94 16.26Q95.89 17.06 95.44 18.32L95.57 18.46L95.55 18.43Q95.08 19.68 94.96 21.02L95.00 21.06L94.92 20.98Q95.72 19.90 96.90 19.43L96.91 19.44L96.94 19.48Q98.13 19.02 99.49 19.02L99.56 19.09L99.52 19.05Q101.06 18.99 102.21 19.60L102.30 19.69L102.25 19.64Q103.41 20.26 104.16 21.25L104.11 21.20L104.09 21.18Q104.91 22.24 105.27 23.50L105.30 23.53L105.36 23.59Q105.70 24.83 105.70 26.15L105.63 26.08L105.62 26.07Q105.66 27.63 105.23 28.96L105.28 29.01L105.27 28.99Q104.74 30.22 103.90 31.19L104.00 31.29L103.97 31.25Q103.09 32.18 101.86 32.75L101.84 32.73L101.92 32.81Q100.59 33.27 98.96 33.27L99.03 33.34L99.10 33.41Q97.38 33.42 96.09 32.70L96.00 32.61L95.98 32.59Q94.80 31.98 93.95 30.82L93.84 30.71L93.82 30.69Q93.10 29.67 92.68 28.20L92.59 28.12L92.69 28.22Q92.12 26.61 92.12 25.13L92.11 25.11L92.16 23.90L92.14 23.87Q92.19 22.42 92.37 20.94L92.39 20.96L92.35 20.92Q92.52 19.42 92.98 18.07L92.89 17.98L92.97 18.06Q93.45 16.73 94.21 15.57L94.26 15.62L94.14 15.50Q94.86 14.30 95.99 13.44L96.18 13.63L96.16 13.61Q97.31 12.76 98.87 12.28L98.80 12.22L98.74 12.16Q100.33 11.70 102.38 11.70L102.44 11.76ZM99.11 21.35L99.05 21.29L99.09 21.33Q98.29 21.25 97.63 21.47L97.75 21.59L97.66 21.51Q97.13 21.86 96.58 22.26L96.50 22.18L96.58 22.26Q95.93 22.55 95.52 23.09L95.56 23.14L95.63 23.20Q95.21 23.73 94.99 24.35L94.88 24.23L94.87 25.22L94.81 25.16Q94.81 26.60 95.16 27.69L95.17 27.71L95.28 27.82Q95.59 28.87 96.17 29.61L96.22 29.66L96.11 29.56Q96.78 30.38 97.52 30.76L97.57 30.81L97.52 30.76Q98.24 31.12 99.05 31.12L99.10 31.17L98.97 31.04Q99.95 31.08 100.68 30.72L100.65 30.69L100.81 30.85Q101.46 30.40 101.96 29.75L101.95 29.74L102.01 29.80Q102.45 29.08 102.71 28.19L102.79 28.27L102.62 28.10Q102.95 27.27 102.95 26.20L103.04 26.29L102.92 26.17Q102.96 25.26 102.72 24.37L102.66 24.32L102.80 24.45Q102.53 23.54 102.04 22.85L102.05 22.86L101.99 22.80Q101.55 22.17 100.82 21.76L100.89 21.83L100.88 21.81Q100.13 21.39 99.15 21.39Z"/><path fill="#0096ff" d="M18.54 17.30L20.94 17.14L21.16 19.27L21.00 19.10Q21.89 18.08 23.10 17.47L23.06 17.44L23.05 17.43Q24.34 16.91 25.83 16.91L25.81 16.89L25.87 16.95Q27.02 16.94 27.96 17.26L27.94 17.24L27.87 17.16Q28.78 17.45 29.44 18.15L29.59 18.30L29.47 18.18Q30.16 18.90 30.51 19.99L30.55 20.03L30.60 20.08Q31.00 21.21 31.00 22.76L30.92 22.69L30.98 33.13L28.19 33.05L28.24 22.69L28.15 22.59Q28.11 21.63 27.90 20.98L27.90 20.97L27.90 20.97Q27.85 20.48 27.45 20.07L27.48 20.10L27.29 19.91Q26.94 19.55 26.34 19.36L26.46 19.48L26.35 19.36Q25.71 19.13 24.94 19.13L25.04 19.23L25.02 19.21Q23.60 19.12 22.61 19.82L22.71 19.92L22.80 20.01Q21.62 20.54 21.07 21.68L21.13 21.74L21.16 33.06L18.46 33.07L18.48 17.24Z"/><path d="M7 30 C89 24,72 35,130 29" stroke="#0096ff" fill="none"/><path d="M20 20 C89 33,67 8,136 5" stroke="#0096ff" fill="none"/><path d="M1 11 C72 11,82 18,141 34" stroke="#0096ff" fill="none"/><path fill="#0096ff" d="M119.33 17.21L123.44 29.47L127.27 17.21L130.04 17.21L124.33 33.03L122.29 33.05L116.55 17.21L119.33 17.21Z"/></svg>